# xmcd CD database file
#
# Track frame offsets:
#	150
#	25318
#	41460
#	68070
#	96508
#	122543
#	162591
#	207025
#	225586
#
# Disc length: 3274 seconds
#
# Revision: 0
# Processed by: cddbd v1.5.1PL0 Copyright (c) Steve Scherf et al.
# Submitted via: CDex 1.50beta10
#
DISCID=720cc809
DTITLE=Paul Brody  - Beyond Babylon
DYEAR=2004
DGENRE=Jazz
TTITLE0=Two Be Simple
TTITLE1=Basketball Barmitzva
TTITLE2=A Fragment of Kafka's Friend 
TTITLE3=Masks and Faces
TTITLE4=Timepeace
TTITLE5=Klezmer a la Bechet
TTITLE6=Golem Khosidl
TTITLE7=Glass Dance
TTITLE8=An Eye For A You
EXTD=YEAR: 2004
EXTT0=
EXTT1=
EXTT2=
EXTT3=
EXTT4=
EXTT5=
EXTT6=
EXTT7=
EXTT8=
PLAYORDER=
